<svg xmlns="http://www.w3.org/2000/svg" version="1.1" xmlns:xlink="http://www.w3.org/1999/xlink" xmlns:svgjs="http://svgjs.com/svgjs" width="1440" height="250" preserveAspectRatio="none" viewBox="0 0 1440 250"><g mask="url(&quot;#SvgjsMask1082&quot;)" fill="none"><rect width="1440" height="250" x="0" y="0" fill="rgba(4, 101, 98, 1)"></rect><path d="M47 250L297 0L502.5 0L252.5 250z" fill="url(#SvgjsLinearGradient1083)"></path><path d="M266.6 250L516.6 0L633.6 0L383.6 250z" fill="url(#SvgjsLinearGradient1083)"></path><path d="M496.20000000000005 250L746.2 0L974.2 0L724.2 250z" fill="url(#SvgjsLinearGradient1083)"></path><path d="M720.8000000000001 250L970.8000000000001 0L1212.3000000000002 0L962.3000000000001 250z" fill="url(#SvgjsLinearGradient1083)"></path><path d="M1415 250L1165 0L1004.5 0L1254.5 250z" fill="url(#SvgjsLinearGradient1084)"></path><path d="M1200.4 250L950.4000000000001 0L690.9000000000001 0L940.9000000000001 250z" fill="url(#SvgjsLinearGradient1084)"></path><path d="M933.8 250L683.8 0L568.3 0L818.3 250z" fill="url(#SvgjsLinearGradient1084)"></path><path d="M693.1999999999999 250L443.19999999999993 0L327.69999999999993 0L577.6999999999999 250z" fill="url(#SvgjsLinearGradient1084)"></path><path d="M1222.4264436429016 250L1440 32.426443642901546L1440 250z" fill="url(#SvgjsLinearGradient1083)"></path><path d="M0 250L217.57355635709845 250L 0 32.426443642901546z" fill="url(#SvgjsLinearGradient1084)"></path></g><defs><mask id="SvgjsMask1082"><rect width="1440" height="250" fill="#ffffff"></rect></mask><linearGradient x1="0%" y1="100%" x2="100%" y2="0%" id="SvgjsLinearGradient1083"><stop stop-color="rgba(15, 185, 91, 0.33)" offset="0"></stop><stop stop-opacity="0" stop-color="rgba(15, 185, 91, 0.33)" offset="0.66"></stop></linearGradient><linearGradient x1="100%" y1="100%" x2="0%" y2="0%" id="SvgjsLinearGradient1084"><stop stop-color="rgba(15, 185, 91, 0.33)" offset="0"></stop><stop stop-opacity="0" stop-color="rgba(15, 185, 91, 0.33)" offset="0.66"></stop></linearGradient></defs></svg>